# xmcd CD database file
#
# Track frame offsets:
#	150
#	17373
#	33558
#	50352
#	69997
#	86913
#	103934
#	122480
#	142453
#	156320
#	173071
#	193225
#	207546
#	226135
#	249166
#	269878
#	292169
#	306173
#
# Disc length: 4301 seconds
#
# Revision: 2
# Processed by: cddbd v1.5.2PL0 Copyright (c) Steve Scherf et al.
# Submitted via: CDex 1.51
#
DISCID=1410cb12
DTITLE=Various Artist - MRH133
DYEAR=1900
DGENRE=Blues
TTITLE0=Taylor Swift - Wildest Dreams
TTITLE1=Justin Bieber - What Do You Mean
TTITLE2=Little Mix - Hair
TTITLE3=Carly Rae Jepson - Run Away With Me
TTITLE4=Shawn Mendes - Stitches
TTITLE5=Pia Mia Ft Chris Brown and Tyga - Do It Again
TTITLE6=Ella Eyre - Good Times
TTITLE7=Rudimental Ft Will Heard - I Will For Love
TTITLE8=Philip George - Alone No More
TTITLE9=Natalie La Rose Ft Fetty Wap - Around The World
TTITLE10=Lana Del Rey - High By The Beach
TTITLE11=Stylo G Ft Gyptian - My Number !
TTITLE12=Drake - Hotline Bling
TTITLE13=Macklemore and Ryan Lewis - Downtown
TTITLE14=N.W.A - Straight Outta Compton
TTITLE15=David Gilmour - Rattle That Lock
TTITLE16=Nelly Ft Jeremih - The Fix
TTITLE17=Elle King - Ex's And Oh's
EXTD=
EXTT0=
EXTT1=
EXTT2=
EXTT3=
EXTT4=
EXTT5=
EXTT6=
EXTT7=
EXTT8=
EXTT9=
EXTT10=
EXTT11=
EXTT12=
EXTT13=
EXTT14=
EXTT15=
EXTT16=
EXTT17=
PLAYORDER=
